<svg xmlns="http://www.w3.org/2000/svg" width="256" height="256" viewBox="0 0 24 24"><defs><path id="tokenBrandedJapanOpenChain0" fill="#BF1B21" d="M3 12.704q0-1.5.558-2.8q.558-1.32 1.554-2.321a7.1 7.1 0 0 1 2.292-1.58a6.9 6.9 0 0 1 2.81-.58q1.494 0 2.809.58a7.1 7.1 0 0 1 2.311 1.58a7.3 7.3 0 0 1 1.555 2.32q.577 1.3.577 2.8t-.577 2.82a7.3 7.3 0 0 1-3.866 3.861a7.1 7.1 0 0 1-2.81.56q-1.494 0-2.81-.54a7.2 7.2 0 0 1-2.29-1.52a7 7 0 0 1-1.555-2.3q-.557-1.32-.558-2.88m.996.02q0 1.3.478 2.44a6.2 6.2 0 0 0 1.335 2a6.5 6.5 0 0 0 1.972 1.36q1.135.48 2.411.48c.85 0 1.693-.16 2.45-.48a6.5 6.5 0 0 0 1.993-1.36a6.2 6.2 0 0 0 1.334-2q.499-1.14.498-2.46c0-.88-.165-1.68-.498-2.44a6.2 6.2 0 0 0-1.334-2.02a6.3 6.3 0 0 0-1.993-1.38a6 6 0 0 0-2.43-.5c-.864 0-1.694.173-2.451.52a6.3 6.3 0 0 0-1.992 1.38a6.6 6.6 0 0 0-1.316 2.04a6.4 6.4 0 0 0-.458 2.42z"/></defs><g fill="none"><path fill="#010100" d="M21 18.843a9 9 0 0 1-1.056.54a6.3 6.3 0 0 1-1.316.4q-.717.162-1.554.161q-1.614 0-2.93-.56a7 7 0 0 1-2.25-1.56a7.3 7.3 0 0 1-1.454-2.28a7.6 7.6 0 0 1-.499-2.76q0-1.561.538-2.9a7.07 7.07 0 0 1 3.786-3.9q1.296-.561 2.81-.561q1.115 0 2.091.3t1.774.78l-.419.9a7.5 7.5 0 0 0-1.574-.74a5.7 5.7 0 0 0-1.852-.3a5.7 5.7 0 0 0-2.371.5a6.1 6.1 0 0 0-1.973 1.36a6.3 6.3 0 0 0-1.315 2.02a6.5 6.5 0 0 0-.478 2.5c0 .893.14 1.66.419 2.42q.438 1.14 1.235 2a6 6 0 0 0 1.952 1.36q1.135.48 2.53.48q1.036 0 1.893-.28a7 7 0 0 0 1.555-.74z"/><use href="#tokenBrandedJapanOpenChain0"/><path fill="#010100" d="M7.982 15.51q0 1.58-.577 2.7q-.578 1.12-1.554 1.7q-.957.6-2.172.64v-.94q1.434-.081 2.37-1.14q.957-1.06.957-3.02v-12h.976zM21 18.843a9 9 0 0 1-1.056.54a6.3 6.3 0 0 1-1.316.4q-.717.162-1.554.161q-1.614 0-2.93-.56a7 7 0 0 1-2.25-1.56a7.3 7.3 0 0 1-1.454-2.28a7.6 7.6 0 0 1-.499-2.76q0-1.561.538-2.9a7.07 7.07 0 0 1 3.786-3.9q1.296-.561 2.81-.561q1.115 0 2.091.3t1.774.78l-.419.9a7.5 7.5 0 0 0-1.574-.74a5.7 5.7 0 0 0-1.852-.3a5.7 5.7 0 0 0-2.371.5a6.1 6.1 0 0 0-1.973 1.36a6.3 6.3 0 0 0-1.315 2.02a6.5 6.5 0 0 0-.478 2.5c0 .893.14 1.66.419 2.42q.438 1.14 1.235 2a6 6 0 0 0 1.952 1.36q1.135.48 2.53.48q1.036 0 1.893-.28a7 7 0 0 0 1.555-.74z"/><use href="#tokenBrandedJapanOpenChain0"/></g></svg>