<svg width="64" height="64" viewBox="0 0 64 64" fill="none" xmlns="http://www.w3.org/2000/svg">
<mask id="mask0_812_3494" style="mask-type:luminance" maskUnits="userSpaceOnUse" x="4" y="4" width="56" height="56">
<path d="M59.2591 4.74072H4.74072V59.2591H59.2591V4.74072Z" fill="white"/>
</mask>
<g mask="url(#mask0_812_3494)">
<mask id="mask1_812_3494" style="mask-type:luminance" maskUnits="userSpaceOnUse" x="4" y="4" width="55" height="55">
<path d="M58.0707 4.74072H4.74072V58.0707H58.0707V4.74072Z" fill="white"/>
</mask>
<g mask="url(#mask1_812_3494)">
<path d="M31.4054 56.7582C45.4073 56.7582 56.7578 45.4077 56.7578 31.4057C56.7578 17.4039 45.4073 6.0531 31.4054 6.0531C17.4035 6.0531 6.05273 17.4039 6.05273 31.4057C6.05273 45.4077 17.4035 56.7582 31.4054 56.7582Z" fill="white"/>
<path d="M31.4058 58.0708C16.6983 58.0708 4.74072 46.1132 4.74072 31.4058C4.74072 16.6983 16.6983 4.74072 31.4058 4.74072C46.1132 4.74072 58.0706 16.6983 58.0706 31.4058C58.0706 46.1132 46.1132 58.0708 31.4058 58.0708ZM31.4058 7.34475C18.1357 7.34475 7.34474 18.1357 7.34474 31.4058C7.34474 44.6758 18.1357 55.467 31.4058 55.467C44.6758 55.467 55.4668 44.6758 55.4668 31.4058C55.4668 18.1357 44.6758 7.34475 31.4058 7.34475Z" fill="#040000"/>
<path d="M18.6773 26.6353C17.6566 28.3852 17.1357 30.3017 17.1357 32.3433C17.1357 34.3848 17.6357 36.3847 18.6565 38.1346C19.6772 39.8636 21.0938 41.2386 22.8437 42.2594C24.5936 43.2593 26.5102 43.7801 28.5726 43.7801C30.6349 43.7801 32.5307 43.2801 34.2806 42.2594C36.0513 41.2386 37.4678 39.822 38.4886 38.0721C39.5094 36.3222 40.0302 34.4056 40.0302 32.3433C40.0302 30.2809 39.4886 28.3852 38.447 26.6561C37.4262 24.9062 36.0096 23.4896 34.2597 22.4688C32.5098 21.4273 30.5932 20.8856 28.5517 20.8856C26.5102 20.8856 24.5728 21.4273 22.8229 22.4688C21.0938 23.4896 19.6981 24.9062 18.6773 26.6561V26.6353ZM24.1353 24.5729C25.4686 23.7604 26.9477 23.3438 28.5517 23.3438C30.1558 23.3438 31.6349 23.7396 32.9681 24.5521C34.3014 25.3437 35.3638 26.4478 36.1554 27.8227C36.9471 29.1976 37.322 30.7183 37.322 32.3224C37.322 33.9265 36.9262 35.4473 36.1554 36.8222C35.4055 38.1763 34.343 39.2804 33.0098 40.0719C31.6974 40.8428 30.2183 41.2386 28.6142 41.2386C27.0102 41.2386 25.5311 40.8428 24.1562 40.0303C22.8229 39.2387 21.7605 38.1346 20.9688 36.7805C20.1981 35.4264 19.8022 33.9265 19.8022 32.3433C19.8022 30.76 20.1772 29.2184 20.9272 27.8435C21.698 26.4686 22.7812 25.3645 24.1145 24.5729H24.1353Z" fill="#BF1A20"/>
<path d="M23.6356 36.1348C23.6356 38.0931 23.1565 39.593 22.1773 40.6138C21.2816 41.6137 20.0525 42.197 18.5317 42.322V44.8427C19.9691 44.7802 21.2607 44.4052 22.3856 43.7386C23.5939 43.0719 24.5314 42.072 25.198 40.8013C25.8646 39.5305 26.2188 37.9889 26.2188 36.239V17.7401H23.6147V36.1348H23.6356Z" fill="#040000"/>
<path d="M44.7381 39.6345C43.2382 40.6969 41.4674 41.2594 39.4884 41.2594C37.5094 41.2594 36.2594 40.8844 34.947 40.1136C33.6554 39.3429 32.6346 38.2596 31.9264 36.8847C31.2389 35.5306 30.8848 33.989 30.8848 32.3224C30.8848 30.6558 31.2597 29.1768 32.0305 27.8227C32.8013 26.4478 33.8429 25.3437 35.1137 24.5521C36.4053 23.7604 37.8427 23.3438 39.3426 23.3438C40.8425 23.3438 42.8215 23.9063 44.5089 24.9895L45.5505 22.5522C44.7172 22.0731 43.8006 21.6564 42.7799 21.3439C41.6966 21.0106 40.5092 20.8439 39.2384 20.8439C37.1135 20.8439 35.197 21.3439 33.5096 22.3647C31.843 23.3438 30.5306 24.7396 29.5723 26.5103C28.6349 28.2602 28.1558 30.2601 28.1558 32.4683C28.1558 34.6764 28.6349 36.4264 29.5515 38.1346C30.4889 39.8428 31.843 41.2177 33.5721 42.2177C35.322 43.2176 37.3635 43.7384 39.655 43.7384C41.9466 43.7384 42.1549 43.5509 43.2382 43.1551C44.2589 42.7801 45.1339 42.3635 45.8422 41.926L44.7589 39.6137L44.7381 39.6345Z" fill="#040000"/>
<mask id="mask2_812_3494" style="mask-type:luminance" maskUnits="userSpaceOnUse" x="16" y="20" width="25" height="25">
<path d="M16.8018 20.5314V44.0925H40.3629V20.5314H16.8018ZM34.3424 42.3843C34.259 42.4259 34.1757 42.4884 34.0924 42.5301C33.9049 42.4468 33.7383 42.3426 33.5716 42.2384C32.78 41.7802 32.0717 41.2385 31.4467 40.6344C31.9675 40.4469 32.4675 40.2178 32.9466 39.9469C33.2591 39.7594 33.5508 39.5511 33.8633 39.3219C34.2174 39.6136 34.5715 39.8844 34.9674 40.1136C35.4465 40.3844 35.9673 40.6135 36.5089 40.801C35.8631 41.4052 35.134 41.9468 34.3632 42.3843H34.3424Z" fill="white"/>
</mask>
<g mask="url(#mask2_812_3494)">
<path d="M18.6768 26.6353C17.656 28.3852 17.1353 30.3017 17.1353 32.3433C17.1353 34.3848 17.6352 36.3847 18.656 38.1346C19.6768 39.8636 21.0933 41.2386 22.8433 42.2594C24.5931 43.2593 26.5097 43.7801 28.5721 43.7801C30.6344 43.7801 32.5302 43.2801 34.28 42.2594C36.0508 41.2386 37.4674 39.822 38.4881 38.0721C39.5089 36.3222 40.0297 34.4056 40.0297 32.3433C40.0297 30.2809 39.4881 28.3852 38.4464 26.6561C37.4257 24.9062 36.0091 23.4896 34.2592 22.4688C32.5093 21.4273 30.5928 20.8856 28.5512 20.8856C26.5097 20.8856 24.5723 21.4273 22.8224 22.4688C21.0933 23.4896 19.6976 24.9062 18.6768 26.6561V26.6353ZM24.1348 24.5729C25.4681 23.7604 26.9472 23.3438 28.5512 23.3438C30.1553 23.3438 31.6344 23.7396 32.9676 24.5521C34.3009 25.3437 35.3633 26.4478 36.1549 27.8227C36.9465 29.1976 37.3215 30.7183 37.3215 32.3224C37.3215 33.9265 36.9257 35.4473 36.1549 36.8222C35.405 38.1763 34.3425 39.2804 33.0093 40.0719C31.6968 40.8428 30.2178 41.2386 28.6137 41.2386C27.0097 41.2386 25.5306 40.8428 24.1557 40.0303C22.8224 39.2387 21.76 38.1346 20.9683 36.7805C20.1976 35.4264 19.8018 33.9265 19.8018 32.3433C19.8018 30.76 20.1767 29.2184 20.9267 27.8435C21.6975 26.4686 22.7808 25.3645 24.114 24.5729H24.1348Z" fill="#BF1A20"/>
</g>
<mask id="mask3_812_3494" style="mask-type:luminance" maskUnits="userSpaceOnUse" x="18" y="17" width="9" height="29">
<path d="M18.2192 17.4274V45.1758H26.5729V17.4274H18.2192ZM25.3647 40.8843C24.9688 41.6135 24.4897 42.2801 23.9272 42.8217C23.5522 42.6551 23.1773 42.4676 22.8232 42.2593C22.2815 41.9467 21.7815 41.5926 21.3024 41.2177C21.5732 41.0093 21.844 40.7802 22.0732 40.5302C22.4273 40.1552 22.719 39.6969 22.9482 39.1761C23.3231 39.5094 23.7397 39.8011 24.1981 40.0719C24.6147 40.3219 25.0521 40.5302 25.4897 40.6968C25.448 40.7593 25.4272 40.8218 25.3855 40.9052L25.3647 40.8843Z" fill="white"/>
</mask>
<g mask="url(#mask3_812_3494)">
<path d="M23.6356 36.1347C23.6356 38.0929 23.1565 39.5928 22.1773 40.6136C21.2816 41.6135 20.0525 42.1968 18.5317 42.3218V44.8425C19.9691 44.78 21.2607 44.405 22.3856 43.7384C23.5939 43.0718 24.5314 42.0718 25.198 40.8011C25.8646 39.5303 26.2188 37.9887 26.2188 36.2389V17.7399H23.6147V36.1347H23.6356Z" fill="#040000"/>
</g>
</g>
</g>
</svg>
